<svg xmlns="http://www.w3.org/2000/svg" viewBox="0 0 121.26 118.26"><defs><style>.cls-1{fill:#221f1f;}</style></defs><title>_Fichier 4trash</title><g id="Calque_2" data-name="Calque 2"><g id="Calque_1-2" data-name="Calque 1"><path class="cls-1" d="M101.54,35.5a4.63,4.63,0,0,0-4.63,4.63V105a4,4,0,0,1-4,4H28.39a4,4,0,0,1-4-4V40.13a4.63,4.63,0,0,0-9.26,0V105a13.32,13.32,0,0,0,13.3,13.3H92.87a13.32,13.32,0,0,0,13.3-13.3V40.13A4.63,4.63,0,0,0,101.54,35.5Z"/><path class="cls-1" d="M116.63,17.67H92.76V13.13A13.14,13.14,0,0,0,79.63,0h-38A13.14,13.14,0,0,0,28.5,13.13v4.54H4.63a4.63,4.63,0,1,0,0,9.25h112a4.63,4.63,0,1,0,0-9.25Zm-78.87,0V13.13a3.87,3.87,0,0,1,3.87-3.87h38a3.87,3.87,0,0,1,3.87,3.87v4.54Z"/><path class="cls-1" d="M51.76,88.29V48.46a4.63,4.63,0,1,0-9.26,0V88.29a4.63,4.63,0,1,0,9.26,0Z"/><path class="cls-1" d="M79.26,88.29V48.46a4.63,4.63,0,0,0-9.26,0V88.29a4.63,4.63,0,1,0,9.26,0Z"/></g></g></svg>